{"title":"The Matchmaker (1997) DVDrip x264 RB58","uid":9774401,"size":673789737,"categoryP":"video","categoryS":"movies_dvdr","magnet":"?xt=urn:btih:8c445b9a417fed8853c936a67fda4327891fc5bf&amp;dn=The+Matchmaker+%281997%29+DVDrip+x264+RB58&amp;tr=udp%3A%2F%2Ftracker.openbittorrent.com%3A80&amp;tr=udp%3A%2F%2Fopen.demonii.com%3A1337&amp;tr=udp%3A%2F%2Ftracker.coppersurfer.tk%3A6969&amp;tr=udp%3A%2F%2Fexodus.desync.com%3A6969","seeders":3,"leechers":0,"uploader":"RedBaron58","files":2,"time":1395007818,"description":"The Matchmaker (1997)  DVDrip x264 mp4\n &lt;a href=&quot;\nhttp://www.imdb.com/title/tt0119632/&quot; rel=&quot;nofollow&quot; target=&quot;_NEW&quot;&gt;\nhttp://www.imdb.com/title/tt0119632/&lt;/a&gt;\n\n\nPlease be patient My upload speed is limited, but I am online most the time and during the night.\nThank you for your kind comments and thumbs ups on my other torrents, your feedback is welcome.\n\n\nAbout the Episode:\nMarcy is an assistant to Senator John McGlory, who is having problems with a re-election campaign. \nDesperate for Irish votes, McGlory's chief of staff Nick sends Marcy to Ireland to trace McGlory's \nrelatives or ancestors. \nMarcy arrives at the village of Ballinagra when it is preparing for an annual Matchmaking Festival. \nA well-dressed, handsome and single young lady, she becomes the center of attention for two \nprofessional matchmakers, Dermot and Millie, as well as for bartender Sean.\n\n\nI hope you enjoy.\n\n\nTechnical:\n\nGeneral\nComplete name                            : F:The MatchmakerThe Matchmaker x264 RB58.mp4\nFormat                                   : MPEG-4\nFormat profile                           : Base Media / Version 2\nCodec ID                                 : mp42\nFile size                                : 642 MiB\nDuration                                 : 1h 33mn\nOverall bit rate mode                    : Variable\nOverall bit rate                         : 958 Kbps\nEncoded date                             : UTC 2014-03-14 16:34:57\nTagged date                              : UTC 2014-03-14 16:54:49\nWriting application                      : HandBrake 0.9.8 2012071700\n\nVideo\nID                                       : 1\nFormat                                   : AVC\nFormat/Info                              : Advanced Video Codec\nFormat profile                           : &lt;a class=&quot;__cf_email__&quot; href=&quot;/cdn-cgi/l/email-protection&quot; data-cfemail=&quot;4f022e26210f037c617f&quot;&gt;[email&amp;#160;protected]&lt;/a&gt;&lt;script cf-hash='f9e31' type=&quot;text/javascript&quot;&gt;\n/* &lt;![CDATA[ */!function(){try{var t=&quot;currentScript&quot;in document?document.currentScript:function(){for(var t=document.getElementsByTagName(&quot;script&quot;),e=t.length;e--;)if(t[e].getAttribute(&quot;cf-hash&quot;))return t[e]}();if(t&amp;&amp;t.previousSibling){var e,r,n,i,c=t.previousSibling,a=c.getAttribute(&quot;data-cfemail&quot;);if(a){for(e=&quot;&quot;,r=parseInt(a.substr(0,2),16),n=2;a.length-n;n+=2)i=parseInt(a.substr(n,2),16)^r,e+=String.fromCharCode(i);e=document.createTextNode(e),c.parentNode.replaceChild(e,c)}}}catch(u){}}();/* ]]&gt; */&lt;/script&gt;\nFormat settings, CABAC                   : Yes\nFormat settings, ReFrames                : 4 frames\nCodec ID                                 : avc1\nCodec ID/Info                            : Advanced Video Coding\nDuration                                 : 1h 33mn\nBit rate mode                            : Variable\nBit rate                                 : 800 Kbps\nWidth                                    : 714 pixels\nHeight                                   : 430 pixels\nDisplay aspect ratio                     : 2.35:1\nOriginal display aspect ratio            : 2.35:1\nFrame rate mode                          : Constant\nFrame rate                               : 25.000 fps\nColor space                              : YUV\nChroma subsampling                       : 4:2:0\nBit depth                                : 8 bits\nScan type                                : Progressive\nBits/(Pixel*Frame)                       : 0.104\nStream size                              : 536 MiB (83%)\nWriting library                          : x264 core 120\nEncoding settings                        : cabac=1 / ref=1 / deblock=1:0:0 / analyse=0x1:0x111\nEncoded date                             : UTC 2014-03-14 16:34:57\nTagged date                              : UTC 2014-03-14 16:54:49\nColor primaries                          : BT.601 NTSC\nTransfer characteristics                 : BT.709\nMatrix coefficients                      : BT.601\n\nAudio\nID                                       : 2\nFormat                                   : MPEG Audio\nFormat version                           : Version 1\nFormat profile                           : Layer 3\nCodec ID                                 : 69\nDuration                                 : 1h 33mn\nBit rate mode                            : Variable\nBit rate                                 : 154 Kbps\nMaximum bit rate                         : 195 Kbps\nChannel(s)                               : 2 channels\nSampling rate                            : 48.0 KHz\nCompression mode                         : Lossy\nDelay relative to video                  : 80ms\nStream size                              : 104 MiB (16%)\nLanguage                                 : English\nEncoded date                             : UTC 2014-03-14 16:34:57\nTagged date                              : UTC 2014-03-14 16:54:49","torrent":{"xt":"urn:btih:8c445b9a417fed8853c936a67fda4327891fc5bf","amp;dn":"The+Matchmaker+%281997%29+DVDrip+x264+RB58","amp;tr":["udp%3A%2F%2Ftracker.openbittorrent.com%3A80","udp%3A%2F%2Fopen.demonii.com%3A1337","udp%3A%2F%2Ftracker.coppersurfer.tk%3A6969","udp%3A%2F%2Fexodus.desync.com%3A6969"],"infoHash":"8c445b9a417fed8853c936a67fda4327891fc5bf","infoHashBuffer":{"type":"Buffer","data":[140,68,91,154,65,127,237,136,83,201,54,166,127,218,67,39,137,31,197,191]},"announce":[],"urlList":[]}}